<?xml version="1.0" encoding="UTF-8"?>
<svg xmlns="http://www.w3.org/2000/svg" xmlns:xlink="http://www.w3.org/1999/xlink" viewBox="0 0 50 50" version="1.1" width="35px" height="35px">
<g id="surface1">
<path style=" " d="M 46 13.5 L 44.894531 13.5 C 43.4375 13.507813 42.992188 14.179688 43 15.5 L 43 34 C 43.023438 35.074219 43.46875 35.480469 44.320313 35.5 L 46 35.5 L 46 40.5 L 31 40.5 L 31 35.5 L 34 35.5 L 34 15.5 L 26.105469 40.5 L 21.683594 40.5 L 14 15.5 L 14 35.5 L 16 35.5 L 16 40.5 L 4 40.5 L 4 35.5 L 5 35.5 C 6.492188 35.535156 7 34.128906 7 33.5 L 7 15.5 C 7.011719 14.484375 6.105469 13.472656 5 13.5 L 4 13.5 L 4.027344 7.5 L 19.5 7.5 L 25 25.964844 L 30.5 7.5 L 46 7.5 Z "/>
</g>
</svg>
