<svg width="40" height="40" xmlns="http://www.w3.org/2000/svg">

 <g>
  <title>background</title>
  <rect fill="none" id="canvas_background" height="42" width="42" y="-1" x="-1"/>
 </g>
 <g>
  <title>Layer 1</title>
  <path stroke="null" id="Quora" d="m26.847629,29.356174c3.650048,-2.239806 6.066277,-6.312181 6.066277,-10.944508c0,-7.075752 -5.706413,-12.827981 -12.800872,-12.827981s-12.800872,5.75223 -12.800872,12.827981c0,7.075752 5.706413,12.827981 12.800872,12.827981c1.028182,0 2.056365,-0.101809 3.033138,-0.356333c1.233819,2.188902 3.084547,3.716042 6.991641,3.003377l0,-2.188902c0,0 -2.519047,-0.610856 -3.290184,-2.341616zm-0.102818,-9.264653c0,2.137997 -0.668319,4.072375 -1.799319,5.548611c-1.388046,-1.476236 -3.598639,-2.697948 -6.42614,-2.545234l0,0.254523l0,2.239806c0,0 1.902138,0.050905 3.187366,2.290711c-0.462682,0.152714 -0.976773,0.203619 -1.490865,0.203619c-3.598639,0 -6.528959,-3.563328 -6.528959,-7.992036c0,-0.559952 0,-2.748853 0,-3.308805c0,-4.428708 2.93032,-7.992036 6.528959,-7.992036c3.598639,0 6.528959,3.563328 6.528959,7.992036c0,0.559952 0,2.748853 0,3.308805z"/>
 </g>
</svg>